<?xml version="1.0" encoding="utf-8"?>
<!-- Generator: Adobe Illustrator 27.0.1, SVG Export Plug-In . SVG Version: 6.00 Build 0)  -->
<svg version="1.1" id="Layer_2_00000117659018483260993640000000991200883911261106_"
	 xmlns="http://www.w3.org/2000/svg" xmlns:xlink="http://www.w3.org/1999/xlink" x="0px" y="0px" viewBox="0 0 121.3 140"
	 style="enable-background:new 0 0 121.3 140;" xml:space="preserve">
<style type="text/css">
	.st0{fill:#1F3D7B;}
	.st1{fill:#5EB3E4;}
</style>
<g id="Layer_1-2">
	<g>
		<g>
			<path class="st0" d="M98.9,97.4c4.4,0,7.9-0.9,10.3-2.4l12.1-95H91.6c-3.9,24.8-6.8,50.1-8.5,76l-3.4-40.7
				C77.9,14.9,76.8,3.1,76.3,0H44.6c-4.5,30.3-7.3,54.7-8.5,73.4L33,37.3L29.7,0H0l11.5,90.1c3.6-5.6,9.8-9.9,19.5-11.4
				c1.6-0.2,3.2-0.4,4.8-0.4c6.5,0,13,1.7,19.6,4.1c2.3-15,3.9-25.5,4.7-31.6c1.6,12.8,3.3,24.3,5.3,35.4c9.8,4.5,19.6,10.1,30.3,11
				C96.8,97.3,97.9,97.4,98.9,97.4L98.9,97.4z"/>
			<path class="st1" d="M31.7,80.9C15.8,83.3,9.6,93.6,9.6,105.3c2-3.1,7.5-7.7,15.6-7.8c23.4-0.1,41.2,22,61.9,20.5
				c-12.1-0.9-23.5-12.1-35.5-19.9c-9.7-6.4-23.9-15.5-37.2-6.1c10.8-12,28-5.7,40.3,1.8c11.5,6.9,26.3,19.2,40,21.3
				c17.2,2.7,26.3-15.8,19.6-26.9c2,7.1-4.8,12.6-17.4,11.5c-11.6-1-21.9-7-32.6-11.7C53.8,83.5,42.1,79.2,31.7,80.9"/>
			<path class="st0" d="M115.8,82.6v3.1h0.5v-1.2h0.4c0.3,0,0.5,0,0.6,0.1c0.2,0.1,0.3,0.3,0.3,0.7v0.3l0,0l0,0h0.5l0,0
				c0,0,0-0.1,0-0.2s0-0.2,0-0.2V85c0-0.2-0.1-0.3-0.2-0.5s-0.3-0.3-0.5-0.3c0.2,0,0.3-0.1,0.4-0.2c0.2-0.1,0.3-0.3,0.3-0.6
				c0-0.4-0.2-0.6-0.5-0.8c-0.2-0.1-0.5-0.1-0.8-0.1L115.8,82.6L115.8,82.6z M117.7,83.5c0,0.2-0.1,0.4-0.3,0.5
				c-0.1,0.1-0.3,0.1-0.5,0.1h-0.5V83h0.5c0.3,0,0.5,0,0.7,0.1C117.6,83.2,117.7,83.3,117.7,83.5 M119.8,84.1c0-0.8-0.3-1.4-0.8-2
				c-0.5-0.5-1.2-0.8-2-0.8s-1.4,0.3-2,0.8c-0.6,0.6-0.8,1.2-0.8,2s0.3,1.4,0.8,2s1.2,0.8,2,0.8s1.4-0.3,2-0.8
				C119.5,85.6,119.7,84.9,119.8,84.1 M117,81.7c0.7,0,1.2,0.2,1.7,0.7s0.7,1,0.7,1.7s-0.2,1.2-0.7,1.7s-1,0.7-1.7,0.7
				s-1.2-0.2-1.7-0.7s-0.7-1-0.7-1.7s0.2-1.2,0.7-1.7C115.7,82,116.3,81.7,117,81.7"/>
		</g>
		<g>
			<path class="st1" d="M8.7,126v11h2.2v2.8H5.1V126H8.7L8.7,126z"/>
			<path class="st1" d="M19.5,132.4v2.8c0,1,0,1.8-0.1,2.2c-0.1,0.5-0.3,0.9-0.7,1.3s-0.8,0.7-1.3,0.9s-1.1,0.3-1.8,0.3
				c-0.8,0-1.4-0.1-1.9-0.2c-0.5-0.2-0.9-0.4-1.2-0.8s-0.5-0.8-0.6-1.2s-0.2-1.2-0.2-2.2v-2.9c0-1.1,0.1-1.9,0.3-2.5
				s0.6-1.1,1.2-1.4c0.6-0.4,1.4-0.5,2.3-0.5c0.8,0,1.4,0.1,2,0.4c0.5,0.2,1,0.5,1.3,0.9s0.5,0.8,0.6,1.1S19.5,131.6,19.5,132.4
				L19.5,132.4z M16,131.6c0-0.6,0-0.9-0.1-1.1c-0.1-0.1-0.2-0.2-0.4-0.2s-0.3,0.1-0.4,0.2S15,131,15,131.6v5.1c0,0.5,0,0.9,0.1,1.1
				c0.1,0.2,0.2,0.2,0.4,0.2s0.3-0.1,0.4-0.2s0.1-0.5,0.1-1V131.6L16,131.6z"/>
			<path class="st1" d="M28.5,128.5v11.3H25l0.1-0.9c-0.2,0.4-0.5,0.7-0.9,0.9s-0.8,0.3-1.2,0.3c-0.5,0-1-0.1-1.3-0.3
				s-0.6-0.4-0.8-0.7s-0.3-0.6-0.3-0.9c0-0.3-0.1-1-0.1-1.9v-7.6H24v7.7c0,0.9,0,1.4,0.1,1.6c0,0.2,0.2,0.2,0.4,0.2
				c0.3,0,0.4-0.1,0.5-0.3s0.1-0.7,0.1-1.6v-7.6L28.5,128.5L28.5,128.5z"/>
			<path class="st1" d="M33.3,126v1.8h-3.5V126H33.3z M33.3,128.5v11.3h-3.5v-11.3H33.3z"/>
			<path class="st1" d="M41.5,132.1h-3.1v-0.6c0-0.5,0-0.9-0.1-1s-0.2-0.2-0.5-0.2c-0.2,0-0.3,0.1-0.4,0.2s-0.2,0.3-0.2,0.6
				c0,0.4,0,0.6,0.1,0.8c0,0.2,0.2,0.3,0.4,0.5s0.7,0.5,1.5,0.8c1,0.5,1.7,0.9,2,1.4c0.3,0.4,0.5,1.1,0.5,1.9c0,0.9-0.1,1.6-0.4,2.1
				s-0.6,0.8-1.2,1.1s-1.2,0.4-2,0.4c-0.9,0-1.6-0.1-2.2-0.4s-1-0.6-1.3-1.1s-0.3-1.2-0.3-2.1v-0.6h3.1v0.7c0,0.6,0,1,0.1,1.2
				s0.2,0.3,0.5,0.3c0.2,0,0.4-0.1,0.5-0.2c0.1-0.1,0.2-0.4,0.2-0.8c0-0.5-0.1-0.9-0.2-1c-0.1-0.1-0.8-0.5-2-1.2
				c-1-0.6-1.6-1.1-1.8-1.6s-0.3-1-0.3-1.6c0-0.9,0.1-1.6,0.4-2s0.6-0.8,1.2-1c0.6-0.2,1.2-0.4,2-0.4s1.4,0.1,1.9,0.3
				s0.9,0.4,1.2,0.8s0.5,0.6,0.5,0.9s0.1,0.7,0.1,1.2L41.5,132.1L41.5,132.1z"/>
			<path class="st1" d="M49.9,128.5l-1.6,11.3h-4.5L42,128.5h3.1l1,8.3c0.1-0.6,0.2-2.1,0.4-4.4c0.1-1.3,0.2-2.6,0.3-3.8L49.9,128.5
				L49.9,128.5z"/>
			<path class="st1" d="M53.9,126v1.8h-3.5V126H53.9z M53.9,128.5v11.3h-3.5v-11.3H53.9z"/>
			<path class="st1" d="M58.7,126v13.8h-3.5V126H58.7z"/>
			<path class="st1" d="M63.5,126v13.8H60V126H63.5z"/>
			<path class="st1" d="M72.6,134.3h-4.5v2.4c0,0.5,0,0.8,0.1,1s0.2,0.2,0.4,0.2c0.3,0,0.4-0.1,0.5-0.3s0.1-0.6,0.1-1.1V135h3.3v0.8
				c0,0.7,0,1.2-0.1,1.6c-0.1,0.4-0.3,0.8-0.6,1.2s-0.7,0.8-1.2,1s-1.1,0.3-1.9,0.3s-1.4-0.1-1.9-0.3s-1-0.5-1.3-0.9
				s-0.5-0.8-0.6-1.2s-0.2-1.1-0.2-1.9v-3.3c0-1,0.1-1.8,0.4-2.3c0.3-0.6,0.7-1,1.3-1.3c0.6-0.3,1.3-0.5,2.1-0.5
				c1,0,1.8,0.2,2.4,0.6s1.1,0.9,1.3,1.5s0.4,1.5,0.4,2.6L72.6,134.3L72.6,134.3z M69.1,132.5v-0.8c0-0.6,0-1-0.1-1.1
				c-0.1-0.2-0.2-0.3-0.4-0.3c-0.2,0-0.4,0.1-0.4,0.2c-0.1,0.1-0.1,0.5-0.1,1.2v0.8L69.1,132.5L69.1,132.5z"/>
			<path class="st1" d="M90.4,126l-1.6,13.8h-4.5c-0.4-2.1-0.8-4.5-1.1-7.2c-0.1,1.2-0.5,3.6-1,7.2h-4.5L76.2,126h3.5l0.4,4.8
				l0.4,4.7c0.1-2.4,0.5-5.6,1-9.5h3.7c0.1,0.4,0.2,1.9,0.4,4.6l0.4,5.3c0.2-3.4,0.5-6.6,1-9.8L90.4,126L90.4,126z"/>
			<path class="st1" d="M94.1,132.9h-3.2v-0.8c0-0.9,0.1-1.6,0.3-2c0.2-0.5,0.6-0.9,1.2-1.3c0.6-0.4,1.4-0.6,2.4-0.6
				c1.2,0,2.1,0.2,2.6,0.6c0.6,0.4,0.9,0.9,1.1,1.5s0.2,1.8,0.2,3.7v5.7h-3.4v-1c-0.2,0.4-0.5,0.7-0.8,0.9s-0.7,0.3-1.2,0.3
				c-0.6,0-1.2-0.2-1.7-0.5s-0.8-1.1-0.8-2.2v-0.9c0-0.9,0.1-1.4,0.4-1.7s0.9-0.7,2-1.1c1.1-0.4,1.7-0.7,1.8-0.9s0.1-0.5,0.1-0.9
				c0-0.6,0-1-0.1-1.2s-0.2-0.3-0.4-0.3c-0.2,0-0.4,0.1-0.4,0.2c-0.1,0.1-0.1,0.5-0.1,1.2V132.9L94.1,132.9z M95.2,134.4
				c-0.6,0.4-0.9,0.7-1,1s-0.1,0.7-0.1,1.2c0,0.6,0,1,0.1,1.1c0.1,0.2,0.2,0.3,0.5,0.3s0.4-0.1,0.4-0.2c0.1-0.1,0.1-0.5,0.1-1.1
				V134.4L95.2,134.4z"/>
			<path class="st1" d="M103.5,126.9v1.8h0.9v1.8h-0.9v6.1c0,0.8,0,1.2,0.1,1.2s0.4,0.1,1,0.1v1.8h-1.4c-0.8,0-1.3,0-1.7-0.1
				c-0.3-0.1-0.6-0.2-0.9-0.4s-0.4-0.5-0.5-0.8s-0.1-1-0.1-2.1v-5.8h-0.7v-1.8h0.7V127L103.5,126.9L103.5,126.9z"/>
			<path class="st1" d="M113,134.3h-4.5v2.4c0,0.5,0,0.8,0.1,1s0.2,0.2,0.4,0.2c0.3,0,0.4-0.1,0.5-0.3s0.1-0.6,0.1-1.1V135h3.3v0.8
				c0,0.7,0,1.2-0.1,1.6c-0.1,0.4-0.3,0.8-0.6,1.2s-0.7,0.8-1.2,1s-1.1,0.3-1.9,0.3s-1.4-0.1-1.9-0.3s-1-0.5-1.3-0.9
				s-0.5-0.8-0.6-1.2s-0.2-1.1-0.2-1.9v-3.3c0-1,0.1-1.8,0.4-2.3c0.3-0.6,0.7-1,1.3-1.3c0.6-0.3,1.3-0.5,2.1-0.5
				c1,0,1.8,0.2,2.4,0.6s1.1,0.9,1.3,1.5s0.4,1.5,0.4,2.6L113,134.3L113,134.3z M109.5,132.5v-0.8c0-0.6,0-1-0.1-1.1
				c-0.1-0.2-0.2-0.3-0.4-0.3c-0.2,0-0.4,0.1-0.4,0.2c-0.1,0.1-0.1,0.5-0.1,1.2v0.8L109.5,132.5L109.5,132.5z"/>
			<path class="st1" d="M117.5,128.5l-0.1,1.5c0.5-1.1,1.2-1.6,2.2-1.7v4c-0.6,0-1.1,0.1-1.4,0.3s-0.5,0.4-0.6,0.7s-0.1,1-0.1,2.1
				v4.5h-3.4v-11.3L117.5,128.5L117.5,128.5z"/>
		</g>
	</g>
</g>
</svg>
